<svg width="28" height="32" viewBox="0 0 28 32" fill="none" xmlns="http://www.w3.org/2000/svg">
<path d="M0 4.48C0 2.00576 2.00576 0 4.48 0H16.5443C17.7325 0 18.872 0.471998 19.7122 1.31216L25.8878 7.48784C26.728 8.328 27.2 9.46751 27.2 10.6557V27.52C27.2 29.9942 25.1942 32 22.72 32H4.48C2.00576 32 0 29.9942 0 27.52V4.48Z" fill="#14AE5C"/>
<path d="M10.6066 9.59999C10.6066 9.24653 10.8931 8.95999 11.2466 8.95999H13.8066C14.16 8.95999 14.4466 9.24653 14.4466 9.59999V32H10.6066V9.59999Z" fill="white"/>
<path d="M6.29059 21.9704C5.99756 21.7727 5.92024 21.375 6.11789 21.0819L7.54943 18.9596C7.74708 18.6666 8.14486 18.5892 8.43789 18.7869L14.2743 22.7236L12.127 25.9071L6.29059 21.9704Z" fill="white"/>
<path d="M18.7888 11.2029C19.0818 11.0052 19.4796 11.0826 19.6772 11.3756L21.1088 13.4979C21.3064 13.791 21.2291 14.1887 20.9361 14.3864L12.9773 19.7546L10.83 16.5711L18.7888 11.2029Z" fill="white"/>
</svg>
